<svg width="598" height="497" viewBox="0 0 598 497" fill="none" xmlns="http://www.w3.org/2000/svg">
<path d="M410.513 35.0936L235.563 131.462C215.353 157.373 599.368 158.975 596.197 131.557L426.548 35.1892C424.095 33.8387 421.343 33.1225 418.543 33.1058C415.742 33.0891 412.982 33.7723 410.513 35.0936Z" fill="#2BBB35"/>
<path opacity="0.2" d="M410.513 35.0936L235.563 131.462C215.353 157.373 599.368 158.975 596.197 131.557L426.548 35.1892C424.095 33.8387 421.343 33.1225 418.543 33.1058C415.742 33.0891 412.982 33.7723 410.513 35.0936Z" fill="black"/>
<path d="M420.288 109.417H405.807V462.611H420.288V109.417Z" fill="#3F3D56"/>
<path d="M413.088 164.553C410.048 164.562 407.037 163.97 404.226 162.811C401.416 161.652 398.862 159.95 396.711 157.802L360.164 121.517L363.15 118.509L399.697 154.794C401.482 156.567 403.601 157.967 405.932 158.915C408.262 159.862 410.758 160.338 413.273 160.314C415.789 160.291 418.275 159.768 420.587 158.777C422.899 157.785 424.992 156.345 426.743 154.539L461.667 118.537L464.709 121.488L429.786 157.493C427.649 159.709 425.092 161.475 422.263 162.687C419.434 163.9 416.392 164.535 413.314 164.555H413.09L413.088 164.553Z" fill="#3F3D56"/>
<path d="M418.152 136.852C400.168 136.852 382.043 136.791 364.451 136.666C327.178 136.401 295.356 135.877 272.424 135.151C233.338 133.914 232.922 132.508 232.744 131.908C232.703 131.769 232.689 131.5 233.057 131.258L407.528 16.5229C409.57 15.1701 411.97 14.4569 414.42 14.4744C416.869 14.492 419.258 15.2396 421.281 16.6216L597.671 131.353C598.039 131.603 598.021 131.877 597.977 132.012C597.758 132.717 597.089 134.863 519.64 136.123C490.173 136.602 454.46 136.852 418.152 136.852Z" fill="#2BBB35"/>
<path d="M407.054 27.0483H420.189L415.76 2.08204C415.745 1.52484 415.513 0.995408 415.114 0.606515C414.715 0.217623 414.179 0 413.622 0C413.065 0 412.529 0.217623 412.13 0.606515C411.731 0.995408 411.499 1.52484 411.484 2.08204L407.054 27.0483Z" fill="#3F3D56"/>
<path d="M393.459 450.985C447.015 450.353 500.57 450.715 554.122 452.072C558.729 452.189 563.51 452.339 567.577 453.559C571.644 454.779 574.776 457.396 573.663 459.912C552.758 460.531 531.831 460.722 510.883 460.486C506.323 462.72 501.315 466.086 504.116 469.099C506.059 471.185 510.843 471.805 515.029 471.81C522.614 471.819 530.23 470.574 537.703 471.304C545.175 472.034 552.632 475.965 550.443 480.045C548.781 483.144 542.474 484.68 536.735 484.952C530.995 485.224 525.119 484.653 519.509 485.39C514.178 486.087 509.558 487.899 504.569 489.164C496.699 491.159 487.975 491.776 479.39 492.303C413.477 496.33 347.017 496.298 280.716 496.265C253.874 496.25 226.667 496.21 200.748 492.291C185.973 490.058 171.815 486.59 156.854 484.79C138.983 482.64 120.513 482.931 102.237 482.996C70.1533 483.109 38.0969 482.491 6.0673 481.141C3.68355 481.041 0.760104 480.7 0.115018 479.407C-0.632475 477.898 2.41057 476.716 4.98643 476.118C19.5787 472.74 34.4163 470.527 49.3591 469.5C56.9267 468.967 64.7253 468.697 71.6852 466.945C78.6451 465.193 84.7259 461.519 84.6609 457.234C84.6407 455.927 84.0891 454.529 85.1804 453.374C86.6291 451.841 90.1931 451.489 93.2683 451.322C127.354 449.469 161.63 448.695 195.873 449.005C207.918 449.114 220.013 449.356 231.977 448.545C241.776 447.881 251.375 446.516 261.033 445.37C273.996 443.832 330.414 435.864 338.644 442.329C344.805 447.169 332.085 448.213 348.609 450.188C362.996 451.898 378.867 451.157 393.459 450.985Z" fill="#F2F2F2"/>
<path d="M363.853 282.751C381.429 282.751 395.677 268.503 395.677 250.927C395.677 233.351 381.429 219.103 363.853 219.103C346.277 219.103 332.029 233.351 332.029 250.927C332.029 268.503 346.277 282.751 363.853 282.751Z" fill="#090814"/>
<path d="M387.65 242.754C399.328 242.754 408.795 233.287 408.795 221.608C408.795 209.93 399.328 200.463 387.65 200.463C375.972 200.463 366.505 209.93 366.505 221.608C366.505 233.287 375.972 242.754 387.65 242.754Z" fill="#090814"/>
<path d="M355.632 289.381C369.986 289.381 381.622 277.746 381.622 263.392C381.622 249.038 369.986 237.402 355.632 237.402C341.279 237.402 329.643 249.038 329.643 263.392C329.643 277.746 341.279 289.381 355.632 289.381Z" fill="#9F616A"/>
<path d="M346.616 284.61C346.616 284.61 357.224 300.522 355.633 307.417C355.633 307.417 348.738 310.599 348.738 311.66C348.738 312.722 342.373 322.798 342.373 322.798L334.948 332.876L331.766 346.135H347.147L364.119 332.876L380.564 314.842C380.564 314.842 391.702 309.535 397.537 313.782L400.719 316.434C400.719 316.434 389.581 301.583 384.274 298.4C384.274 298.4 374.727 286.732 375.788 275.063L346.616 284.61Z" fill="#9F616A"/>
<path d="M350.859 306.883C350.859 306.883 340.252 312.717 336.008 323.856C331.765 334.994 312.671 372.121 312.671 372.121C312.671 372.121 311.079 395.989 312.14 397.05C313.201 398.112 325.4 386.443 327.521 383.26C329.643 380.077 338.129 341.889 338.129 341.889L351.919 319.614L354.571 306.884L350.859 306.883Z" fill="#A0616A"/>
<path d="M317.444 373.712L312.671 372.121C312.671 372.121 283.499 354.088 281.904 346.13C280.309 338.171 256.975 311.654 256.445 325.975C255.915 340.295 273.418 356.207 273.418 356.207C273.418 356.207 311.606 409.777 313.728 394.395L317.444 373.712Z" fill="#9F616A"/>
<path d="M365.71 337.117C365.71 337.117 366.241 351.968 386.926 357.272C386.926 357.272 408.142 385.914 410.264 398.643C412.385 411.372 468.078 476.611 468.078 476.611C468.078 476.611 519.526 482.976 519.526 476.611C519.526 470.246 476.564 464.942 476.564 464.942C476.564 464.942 431.479 398.112 429.357 389.096C427.236 380.08 407.082 313.249 397.534 313.783C397.534 313.783 388.517 309.539 383.213 312.722C377.91 315.905 365.71 337.117 365.71 337.117Z" fill="#9F616A"/>
<path d="M303.654 397.051C303.654 397.051 266.526 347.193 258.57 344.011C250.615 340.829 240.537 338.704 234.702 346.132C228.867 353.561 159.916 440.541 159.916 440.541C159.916 440.541 135.518 465.47 123.319 460.696C123.319 460.696 116.954 466.003 131.805 467.061C146.656 468.119 160.447 463.879 160.447 463.879C160.447 463.879 169.464 465.47 175.828 467.061C182.192 468.652 190.149 469.182 189.619 464.94L187.497 447.968C187.497 447.968 242.128 402.884 243.719 383.79C243.719 383.79 242.658 374.773 243.719 375.834C244.78 376.896 267.057 400.763 277.132 406.066C287.207 411.37 312.138 418.796 312.138 418.796L303.654 397.051Z" fill="#9F616A"/>
<path opacity="0.1" d="M303.654 397.051C303.654 397.051 266.526 347.193 258.57 344.011C250.615 340.829 240.537 338.704 234.702 346.132C228.867 353.561 159.916 440.541 159.916 440.541C159.916 440.541 135.518 465.47 123.319 460.696C123.319 460.696 116.954 466.003 131.805 467.061C146.656 468.119 160.447 463.879 160.447 463.879C160.447 463.879 169.464 465.47 175.828 467.061C182.192 468.652 190.149 469.182 189.619 464.94L187.497 447.968C187.497 447.968 242.128 402.884 243.719 383.79C243.719 383.79 242.658 374.773 243.719 375.834C244.78 376.896 267.057 400.763 277.132 406.066C287.207 411.37 312.138 418.796 312.138 418.796L303.654 397.051Z" fill="black"/>
<path d="M309.488 403.942C309.488 403.942 260.692 385.378 254.327 381.136C247.962 376.893 225.155 368.406 213.486 377.954C201.817 387.501 145.066 431.525 125.971 435.77C106.876 440.015 73.9919 450.09 73.9919 450.09C73.9919 450.09 52.7758 451.682 75.5833 460.698C75.5833 460.698 103.694 463.35 108.468 467.593C113.241 471.836 129.153 477.14 130.214 470.245C131.275 463.35 134.457 454.333 140.292 453.272C146.126 452.212 216.137 433.118 226.747 412.432C226.747 412.432 250.615 425.692 265.467 441.074C280.319 456.456 315.324 464.942 315.324 464.942L309.488 403.942Z" fill="#9F616A"/>
<path d="M326.991 386.974C326.991 386.974 303.744 393.154 301.841 390.861C299.938 388.567 289.863 401.296 299.411 426.754C308.959 452.213 306.837 463.882 312.141 467.595C317.445 471.308 342.373 465.474 349.799 468.126C357.224 470.778 366.771 472.899 369.954 457.518C373.137 442.137 381.092 415.087 379.501 411.374C377.91 407.661 369.423 399.175 369.423 399.175L351.92 390.158L326.991 386.974Z" fill="#090814"/>
<path d="M407.347 327.306C407.347 327.306 403.654 316.963 396.8 315.024C396.22 314.866 395.649 314.679 395.089 314.463C392.513 313.44 384.659 311.209 378.971 319.085C372.076 328.632 365.711 339.771 371.015 346.135C376.318 352.5 386.927 356.213 386.927 356.213L394.883 366.291C394.883 366.291 378.971 394.933 378.971 408.192C378.971 408.192 378.44 413.5 369.424 403.949C360.408 394.398 323.509 387.803 323.509 387.803C323.509 387.803 331.236 377.431 325.401 372.657C319.566 367.884 314.226 348.87 328.035 341.404L351.656 306.623L355.899 307.154C355.899 307.154 350.33 312.193 349.8 314.845C349.269 317.497 328.053 336.061 336.54 339.243C345.026 342.425 358.815 335.53 364.651 327.575C367.86 323.199 372.35 317.219 378.04 313.428C380.96 311.522 384.332 310.42 387.815 310.233C391.298 310.046 394.768 310.781 397.876 312.363L399.657 313.253C403.124 315.68 405.845 319.027 407.512 322.917L408.144 324.392L407.347 327.306Z" fill="#2BBB35"/>
<path d="M372.339 279.568C385.228 279.568 395.677 269.12 395.677 256.231C395.677 243.342 385.228 232.894 372.339 232.894C359.45 232.894 349.002 243.342 349.002 256.231C349.002 269.12 359.45 279.568 372.339 279.568Z" fill="#090814"/>
<path d="M352.715 263.658C364.139 263.658 373.4 256.415 373.4 247.48C373.4 238.546 364.139 231.303 352.715 231.303C341.291 231.303 332.029 238.546 332.029 247.48C332.029 256.415 341.291 263.658 352.715 263.658Z" fill="#090814"/>
<path d="M360.406 279.039C362.31 279.039 363.853 276.308 363.853 272.939C363.853 269.571 362.31 266.84 360.406 266.84C358.502 266.84 356.958 269.571 356.958 272.939C356.958 276.308 358.502 279.039 360.406 279.039Z" fill="#A0616A"/>
<path d="M366.241 219.294V261.534H354.042V219.294C354.042 218.54 354.341 217.818 354.873 217.285C355.406 216.752 356.129 216.453 356.882 216.453H363.396C364.149 216.453 364.871 216.752 365.404 217.285C365.937 217.818 366.236 218.54 366.236 219.294H366.241Z" fill="#F2F2F2"/>
<path d="M360.14 283.282C367.463 283.282 373.4 277.345 373.4 270.022C373.4 262.699 367.463 256.762 360.14 256.762C352.817 256.762 346.88 262.699 346.88 270.022C346.88 277.345 352.817 283.282 360.14 283.282Z" fill="#2BBB35"/>
<path d="M360.14 275.856C363.362 275.856 365.975 273.244 365.975 270.022C365.975 266.8 363.362 264.188 360.14 264.188C356.918 264.188 354.306 266.8 354.306 270.022C354.306 273.244 356.918 275.856 360.14 275.856Z" fill="#F2F2F2"/>
<path d="M360.141 271.613C361.02 271.613 361.733 270.9 361.733 270.022C361.733 269.143 361.02 268.43 360.141 268.43C359.262 268.43 358.55 269.143 358.55 270.022C358.55 270.9 359.262 271.613 360.141 271.613Z" fill="#2BBB35"/>
<path d="M366.241 219.294V221.224H354.042V219.294C354.042 218.54 354.341 217.818 354.873 217.285C355.406 216.752 356.129 216.453 356.882 216.453H363.396C364.149 216.453 364.871 216.752 365.404 217.285C365.937 217.818 366.236 218.54 366.236 219.294H366.241Z" fill="#D6D6E3"/>
<path d="M224.547 323.934L255.777 292.704C256.318 292.163 256.96 291.734 257.667 291.441C258.373 291.149 259.131 290.998 259.896 290.998C260.661 290.998 261.418 291.149 262.125 291.441C262.832 291.734 263.474 292.163 264.015 292.704L292.109 320.798C292.65 321.339 293.079 321.981 293.371 322.688C293.664 323.395 293.815 324.152 293.815 324.917C293.815 325.682 293.664 326.44 293.371 327.146C293.079 327.853 292.65 328.495 292.109 329.036L262.93 358.217C261.889 359.258 260.493 359.866 259.023 359.92C257.552 359.974 256.116 359.469 255.002 358.507L224.858 332.463C224.252 331.94 223.761 331.297 223.414 330.575C223.068 329.853 222.874 329.068 222.845 328.267C222.816 327.467 222.952 326.67 223.245 325.924C223.538 325.179 223.981 324.502 224.547 323.936V323.934Z" fill="#2F2E41"/>
<path d="M227.59 327.585L260.896 294.279L288.382 321.764L256.369 353.779L227.59 327.585Z" fill="#F2F2F2"/>
<path d="M251.585 324.029C251.852 324.029 252.069 323.812 252.069 323.545C252.069 323.278 251.852 323.062 251.585 323.062C251.318 323.062 251.101 323.278 251.101 323.545C251.101 323.812 251.318 324.029 251.585 324.029Z" fill="#F2F2F2"/>
<path d="M258.537 316.63C258.804 316.63 259.021 316.414 259.021 316.147C259.021 315.88 258.804 315.663 258.537 315.663C258.27 315.663 258.054 315.88 258.054 316.147C258.054 316.414 258.27 316.63 258.537 316.63Z" fill="#F2F2F2"/>
<path d="M258.954 319.495C259.488 319.495 259.921 319.062 259.921 318.528C259.921 317.994 259.488 317.561 258.954 317.561C258.42 317.561 257.986 317.994 257.986 318.528C257.986 319.062 258.42 319.495 258.954 319.495Z" fill="#F2F2F2"/>
</svg>
