<svg width="306" height="225" viewBox="0 0 306 225" fill="none" xmlns="http://www.w3.org/2000/svg">
<path d="M260.212 64.5436C260.211 59.1125 258.883 53.7881 256.376 49.1614C253.868 44.5347 250.28 40.7868 246.008 38.334C241.736 35.8811 236.949 34.8192 232.177 35.2662C227.406 35.7132 222.837 37.6515 218.978 40.866C215.119 44.0806 212.121 48.4454 210.316 53.476C208.512 58.5066 207.972 64.0061 208.756 69.3638C209.54 74.7215 211.618 79.7278 214.759 83.8268C217.9 87.9258 221.981 90.9572 226.549 92.5842L227.415 149.134L267.007 104.805C267.007 104.805 251.57 98.0245 248.613 89.0398C252.18 86.3626 255.108 82.7237 257.132 78.4487C259.156 74.1738 260.215 69.3962 260.212 64.5436Z" fill="#ED9DA0"/>
<path d="M248.495 89.0574C248.495 89.0574 257.332 85.4869 261.864 75.059C266.024 65.4807 266.483 49.1638 254.666 45.201C254.666 45.201 261.475 38.5336 248.922 34.4719L250.592 36.2194C250.592 36.2194 249.119 33.2009 241.844 34.9857C241.844 34.9857 214.961 31.4339 210.189 41.4748C210.189 41.4748 195.761 44.8292 203.444 57.2797C203.444 57.2797 203.841 59.7024 206.583 59.6568L205.213 57.6247L209.388 59.6568C209.388 59.6568 215.194 49.1659 220.673 54.9668C220.673 54.9668 231.154 54.4665 236.165 53.425C236.165 53.425 235.159 68.697 244.78 71.6712C254.401 74.6455 248.493 89.0583 248.493 89.0583L248.495 89.0574Z" fill="#090814"/>
<path d="M159.617 187.746L206.963 219.784L210.9 198.969L166.039 174.791C165.19 171.133 162.84 167.635 159.355 165.412C153.258 161.522 146.015 163.009 143.178 168.733C140.34 174.457 142.982 182.25 149.079 186.14C152.566 188.364 156.42 188.823 159.617 187.746Z" fill="#ED9DA0"/>
<path d="M258.256 97.3525C247.343 109.79 236.981 113.129 227.447 102.759L213.981 214.691L219.58 223.894L253.63 224.004L258.256 97.3525H258.256Z" fill="#2BBB35"/>
<path d="M260.048 96.2267L265.742 101.531L283.028 112.713C286.716 114.265 290.041 116.755 292.748 119.992C295.455 123.229 297.473 127.127 298.645 131.386C301.407 141.445 303.366 151.764 304.498 162.221C307.341 188.661 305.275 223.525 305.275 223.525L278.995 223.785L280.137 206.302L284.365 163.047L284.253 223.895H253.63C253.63 223.895 251.534 120.693 256.101 97.7416C256.196 97.2806 256.393 96.8546 256.673 96.504C256.953 96.1534 257.308 95.8898 257.703 95.7382C258.098 95.5866 258.521 95.552 258.932 95.6378C259.342 95.7235 259.726 95.9267 260.048 96.2281L260.048 96.2267Z" fill="#090814"/>
<path d="M227.447 102.759L206.74 114.054C203.236 115.965 200.169 118.768 197.777 122.244C195.385 125.72 193.732 129.775 192.948 134.095L184.272 181.898L181.437 210.815C181.437 210.815 193.635 223.208 201.64 219.098L201.069 223.894H219.579L227.447 102.759Z" fill="#090814"/>
<path d="M197.07 189.934L172.732 174.64L165.761 196.544C165.761 196.544 179.752 216.208 201.64 219.097L197.069 189.934L197.07 189.934Z" fill="#090814"/>
<path d="M199.015 223.561C203.911 214.154 205.583 206.638 207.987 196.062C210.382 185.527 211.491 174.669 211.283 163.791C211.165 157.675 210.617 151.58 209.643 145.563C209.527 144.843 210.499 144.534 210.616 145.259C211.496 150.677 212.037 156.16 212.233 161.665C212.428 167.173 212.283 172.69 211.799 178.176C211.322 183.633 210.518 189.047 209.393 194.38C208.262 199.742 206.804 205.008 205.028 210.14C203.253 215.264 203.523 217.579 201.127 222.368C200.83 222.961 200.528 223.551 200.222 224.139C200.152 224.264 200.042 224.354 199.915 224.389C199.788 224.424 199.653 224.402 199.54 224.327C199.427 224.252 199.345 224.13 199.309 223.988C199.274 223.845 199.288 223.692 199.35 223.561H199.015Z" fill="white"/>
<path d="M179.728 176.228C181.02 178.773 182.779 180.974 184.885 182.682C186.991 184.39 189.396 185.566 191.937 186.13C192.574 186.269 192.304 187.372 191.669 187.233C189.002 186.632 186.479 185.39 184.269 183.592C182.059 181.793 180.214 179.48 178.857 176.806C178.795 176.675 178.78 176.522 178.816 176.38C178.851 176.237 178.934 176.115 179.047 176.04C179.16 175.965 179.294 175.943 179.421 175.978C179.549 176.013 179.659 176.103 179.729 176.228L179.728 176.228Z" fill="white"/>
<path d="M278.873 223C279.382 217.101 279.019 211.099 278.541 205.211C278.028 198.426 277.108 191.689 275.787 185.045C275.221 182.072 274.444 179.155 273.462 176.323C273.242 175.716 274.216 175.455 274.435 176.057C275.309 178.562 276.015 181.138 276.546 183.764C277.232 186.95 277.773 190.168 278.233 193.394C279.217 200.162 279.821 206.994 280.042 213.848C280.165 216.9 280.112 219.958 279.883 223.002C279.828 223.639 278.819 223.645 278.874 223.002L278.873 223Z" fill="white"/>
<path d="M245.449 215.432L282.945 220.292L279.346 203.961L246.096 200.586C243.896 197.744 240.417 195.803 236.424 195.58C229.437 195.189 223.542 200.187 223.256 206.746C222.969 213.305 228.402 218.94 235.388 219.33C239.381 219.554 243.012 218.012 245.449 215.43V215.432Z" fill="#ED9DA0"/>
<path d="M280.712 197.776L254.501 196.488L256.751 218.455C256.751 218.455 275.853 228.435 295.393 220.359L280.712 197.776Z" fill="#090814"/>
<path d="M227.31 103.314L213.977 214.138L212.815 212.229L226.28 100.297C234.991 109.772 244.394 107.804 254.275 97.9057C254.503 97.677 254.784 97.5272 255.085 97.4741C255.386 97.421 255.694 97.4669 255.973 97.6062C256.252 97.7456 256.489 97.9726 256.658 98.2604C256.826 98.5482 256.919 98.8847 256.924 99.2301C246.449 110.567 236.496 113.305 227.308 103.313L227.31 103.314Z" fill="#090814"/>
<path d="M113.546 162.819C113.484 162.819 113.423 162.805 113.365 162.778C113.308 162.751 113.256 162.712 113.212 162.662C113.168 162.612 113.134 162.553 113.11 162.488C113.086 162.423 113.074 162.354 113.074 162.283V140.326C113.074 140.256 113.086 140.186 113.11 140.121C113.134 140.056 113.168 139.997 113.212 139.947C113.256 139.898 113.308 139.858 113.365 139.831C113.423 139.804 113.484 139.791 113.546 139.791C113.608 139.791 113.669 139.804 113.727 139.831C113.784 139.858 113.836 139.898 113.88 139.947C113.924 139.997 113.958 140.056 113.982 140.121C114.006 140.186 114.018 140.256 114.018 140.326V162.283C114.018 162.354 114.006 162.423 113.982 162.488C113.958 162.553 113.924 162.612 113.88 162.662C113.836 162.712 113.784 162.751 113.727 162.778C113.669 162.805 113.608 162.819 113.546 162.819Z" fill="#3F3D56"/>
<path d="M112.898 131.753C112.815 131.754 112.733 131.729 112.661 131.681L85.8373 113.952C85.7837 113.916 85.7368 113.869 85.6993 113.813C85.6617 113.757 85.6343 113.693 85.6184 113.625C85.6026 113.557 85.5988 113.486 85.6071 113.417C85.6155 113.347 85.6358 113.28 85.6671 113.219C85.6983 113.158 85.7398 113.105 85.7891 113.062C85.8384 113.02 85.8947 112.989 85.9547 112.971C86.0146 112.953 86.0771 112.949 86.1386 112.958C86.2 112.967 86.2592 112.991 86.3128 113.026L113.137 130.755C113.227 130.815 113.297 130.906 113.336 131.015C113.375 131.124 113.382 131.244 113.355 131.358C113.328 131.472 113.268 131.572 113.186 131.643C113.103 131.715 113.002 131.754 112.898 131.753Z" fill="#3F3D56"/>
<path d="M59.2514 131.753C59.1476 131.754 59.0467 131.715 58.9642 131.643C58.8818 131.572 58.8224 131.472 58.7952 131.358C58.7681 131.244 58.7747 131.124 58.8141 131.015C58.8535 130.906 58.9234 130.815 59.0131 130.755L85.8369 113.026C85.9451 112.954 86.0739 112.935 86.195 112.971C86.3161 113.007 86.4196 113.096 86.4826 113.219C86.5457 113.342 86.5632 113.488 86.5312 113.625C86.4993 113.763 86.4206 113.88 86.3124 113.952L59.4893 131.681C59.4171 131.729 59.335 131.754 59.2514 131.753Z" fill="#3F3D56"/>
<path d="M140.754 158.532C140.671 158.532 140.589 158.507 140.517 158.459L113.692 140.73C113.584 140.658 113.505 140.541 113.474 140.404C113.442 140.266 113.459 140.12 113.522 139.997C113.585 139.875 113.689 139.785 113.81 139.749C113.931 139.713 114.06 139.733 114.168 139.804L140.992 157.534C141.082 157.593 141.152 157.684 141.191 157.793C141.23 157.902 141.237 158.022 141.21 158.136C141.183 158.25 141.124 158.35 141.041 158.422C140.959 158.493 140.858 158.532 140.754 158.532Z" fill="#3F3D56"/>
<path d="M87.1066 158.532C87.0028 158.532 86.9019 158.493 86.8194 158.422C86.737 158.35 86.6776 158.25 86.6505 158.136C86.6233 158.023 86.63 157.902 86.6693 157.793C86.7087 157.684 86.7786 157.593 86.8683 157.534L113.692 139.804C113.8 139.733 113.929 139.713 114.05 139.749C114.11 139.767 114.166 139.798 114.216 139.841C114.265 139.883 114.307 139.937 114.338 139.997C114.369 140.058 114.389 140.125 114.398 140.195C114.406 140.265 114.402 140.336 114.386 140.404C114.371 140.472 114.343 140.535 114.306 140.591C114.268 140.647 114.221 140.694 114.168 140.73L87.3446 158.459C87.2726 158.507 87.1907 158.532 87.1074 158.532L87.1066 158.532Z" fill="#3F3D56"/>
<path d="M86.1629 104.44C86.0379 104.44 85.918 104.383 85.8295 104.283C85.741 104.183 85.6911 104.047 85.6908 103.905L85.6472 84.4176C85.6471 84.3473 85.6591 84.2776 85.6827 84.2126C85.7063 84.1476 85.7409 84.0885 85.7847 84.0386C85.8284 83.9888 85.8803 83.9492 85.9376 83.9221C85.9948 83.895 86.0561 83.881 86.1181 83.8809C86.2431 83.8809 86.363 83.9371 86.4515 84.0372C86.54 84.1374 86.5899 84.2732 86.5902 84.415L86.6338 103.903C86.6339 103.973 86.6219 104.043 86.5983 104.108C86.5747 104.173 86.54 104.232 86.4963 104.282C86.4526 104.332 86.4006 104.371 86.3434 104.398C86.2862 104.425 86.2249 104.439 86.1629 104.44Z" fill="#3F3D56"/>
<path d="M92.2681 114.571H79.9681C79.4048 114.57 78.8647 114.316 78.4664 113.864C78.0681 113.412 77.8441 112.799 77.8434 112.161V104.994C77.8441 104.355 78.0681 103.742 78.4664 103.29C78.8647 102.838 79.4048 102.584 79.9681 102.583H92.2681C92.8314 102.584 93.3715 102.838 93.7698 103.29C94.1681 103.742 94.3921 104.355 94.3927 104.994V112.16C94.3922 112.799 94.1682 113.412 93.7699 113.864C93.3716 114.316 92.8315 114.57 92.2681 114.571Z" fill="#E6E6E6"/>
<path d="M71.9107 78.1399H45.7387C45.6135 78.1399 45.4934 78.0835 45.4049 77.9832C45.3164 77.8828 45.2667 77.7467 45.2667 77.6048C45.2667 77.4629 45.3164 77.3269 45.4049 77.2265C45.4934 77.1262 45.6135 77.0698 45.7387 77.0698H71.9103C72.0355 77.0698 72.1556 77.1262 72.2441 77.2265C72.3326 77.3269 72.3824 77.4629 72.3824 77.6048C72.3824 77.7467 72.3326 77.8828 72.2441 77.9832C72.1556 78.0835 72.0355 78.1399 71.9103 78.1399H71.9107Z" fill="#3F3D56"/>
<path d="M86.1185 70.4911C85.9933 70.4911 85.8733 70.4347 85.7847 70.3343C85.6962 70.2338 85.6465 70.0976 85.6465 69.9556V51.4178C85.6465 51.2758 85.6962 51.1396 85.7847 51.0392C85.8733 50.9387 85.9933 50.8823 86.1185 50.8823C86.2437 50.8823 86.3638 50.9387 86.4523 51.0392C86.5408 51.1396 86.5906 51.2758 86.5906 51.4178V69.9552C86.5906 70.0972 86.5408 70.2334 86.4523 70.3338C86.3638 70.4342 86.2437 70.4911 86.1185 70.4911Z" fill="#3F3D56"/>
<path d="M35.5563 78.1409C35.4718 78.141 35.3888 78.1152 35.3161 78.0662L9.90842 60.9839C9.85507 60.948 9.80848 60.9005 9.77129 60.8442C9.7341 60.7879 9.70706 60.7239 9.69169 60.6557C9.67633 60.5876 9.67295 60.5166 9.68175 60.447C9.69055 60.3774 9.71136 60.3104 9.74298 60.2499C9.7746 60.1893 9.81643 60.1365 9.86606 60.0943C9.91569 60.0521 9.97215 60.0214 10.0322 60.004C10.0923 59.9866 10.1549 59.9827 10.2162 59.9927C10.2776 60.0027 10.3367 60.0263 10.39 60.0622L35.7977 77.1446C35.8876 77.204 35.9576 77.2954 35.997 77.4047C36.0363 77.5139 36.0427 77.6348 36.0152 77.7486C35.9878 77.8624 35.9279 77.9627 35.845 78.034C35.7621 78.1052 35.6607 78.1434 35.5567 78.1426L35.5563 78.1409Z" fill="#3F3D56"/>
<path d="M10.1495 95.2232C10.0454 95.2241 9.94403 95.186 9.86105 95.1148C9.77807 95.0436 9.71815 94.9432 9.69062 94.8294C9.66309 94.7156 9.66949 94.5946 9.70882 94.4853C9.74814 94.3761 9.81819 94.2846 9.90808 94.2251L35.3158 77.1427C35.3691 77.1069 35.4282 77.0833 35.4896 77.0733C35.5509 77.0633 35.6135 77.0671 35.6736 77.0846C35.7337 77.102 35.7901 77.1327 35.8397 77.1749C35.8894 77.217 35.9312 77.2699 35.9628 77.3304C35.9944 77.3909 36.0153 77.4579 36.0241 77.5276C36.0329 77.5972 36.0295 77.6681 36.0141 77.7363C35.9987 77.8045 35.9717 77.8685 35.9345 77.9248C35.8973 77.9811 35.8507 78.0286 35.7974 78.0644L10.3897 95.1468C10.3171 95.1964 10.2341 95.2227 10.1495 95.2232Z" fill="#3F3D56"/>
<path d="M43.8509 86.7795H37.5344C36.9711 86.7788 36.4311 86.5246 36.0328 86.0728C35.6345 85.621 35.4104 85.0084 35.4098 84.3694V70.417C35.4105 69.7781 35.6346 69.1656 36.0329 68.7138C36.4312 68.2621 36.9712 68.008 37.5344 68.0073H43.852C44.4153 68.008 44.9554 68.2622 45.3537 68.714C45.752 69.1658 45.976 69.7784 45.9766 70.4174V84.3698C45.9759 85.0089 45.7517 85.6216 45.3531 86.0734C44.9546 86.5252 44.4143 86.7791 43.8509 86.7795Z" fill="#E6E6E6"/>
<path d="M92.2681 52.8592H79.9681C79.4045 52.8585 78.8642 52.6041 78.4659 52.1519C78.0675 51.6997 77.8436 51.0866 77.8434 50.4473V43.2822C77.8441 42.6432 78.0681 42.0306 78.4664 41.5787C78.8647 41.1269 79.4048 40.8728 79.9681 40.8721H92.2681C92.8314 40.8728 93.3715 41.1269 93.7698 41.5787C94.1681 42.0306 94.3921 42.6432 94.3927 43.2822V50.4473C94.3921 51.0863 94.1681 51.6989 93.7698 52.1508C93.3715 52.6026 92.8314 52.8567 92.2681 52.8574V52.8592Z" fill="#E6E6E6"/>
<path d="M8.44104 70.1769H2.1246C1.56131 70.1762 1.02126 69.9221 0.622952 69.4703C0.224643 69.0184 0.000607544 68.4058 0 67.7668V53.8144C0.000708773 53.1755 0.224782 52.563 0.623081 52.1113C1.02138 51.6595 1.56137 51.4055 2.1246 51.4048H8.44257C9.00586 51.4055 9.54592 51.6596 9.94423 52.1114C10.3425 52.5633 10.5666 53.1759 10.5672 53.8149V67.7673C10.5665 68.4065 10.3422 69.0192 9.94355 69.471C9.54492 69.9228 9.00453 70.1767 8.44104 70.1769Z" fill="#E6E6E6"/>
<path d="M8.44104 103.918H2.1246C1.56131 103.917 1.02126 103.663 0.622952 103.211C0.224643 102.759 0.000607544 102.147 0 101.508V87.5552C0.000708773 86.9163 0.224782 86.3037 0.623081 85.852C1.02138 85.4003 1.56137 85.1462 2.1246 85.1455H8.44257C9.00586 85.1462 9.54592 85.4003 9.94423 85.8522C10.3425 86.304 10.5666 86.9166 10.5672 87.5556V101.508C10.5665 102.147 10.3422 102.76 9.94355 103.212C9.54492 103.664 9.00453 103.917 8.44104 103.918Z" fill="#E6E6E6"/>
<path d="M126.498 78.1399H100.326C100.201 78.1399 100.081 78.0835 99.9921 77.9832C99.9036 77.8828 99.8539 77.7467 99.8539 77.6048C99.8539 77.4629 99.9036 77.3269 99.9921 77.2265C100.081 77.1262 100.201 77.0698 100.326 77.0698H126.498C126.623 77.0698 126.743 77.1262 126.831 77.2265C126.92 77.3269 126.97 77.4629 126.97 77.6048C126.97 77.7467 126.92 77.8828 126.831 77.9832C126.743 78.0835 126.623 78.1399 126.498 78.1399Z" fill="#3F3D56"/>
<path d="M86.5634 40.3363C86.5641 40.4543 86.5304 40.5693 86.4676 40.6633C86.4048 40.7574 86.3164 40.8253 86.216 40.8565C86.1157 40.8876 86.0091 40.8803 85.9128 40.8357C85.8165 40.7911 85.7359 40.7117 85.6835 40.6097L70.6261 11.7885C70.5623 11.6661 70.544 11.5199 70.5751 11.3822C70.6063 11.2445 70.6844 11.1264 70.7923 11.054C70.9002 10.9816 71.0291 10.9608 71.1505 10.9962C71.2719 11.0315 71.376 11.1202 71.4398 11.2426L86.4976 40.0638C86.5407 40.1463 86.5634 40.2404 86.5634 40.3363Z" fill="#3F3D56"/>
<path d="M101.623 11.5156C101.623 11.6115 101.6 11.7057 101.557 11.7881L86.4991 40.6098C86.4352 40.7322 86.3312 40.8208 86.2098 40.8562C86.0883 40.8916 85.9595 40.8708 85.8516 40.7984C85.7437 40.726 85.6656 40.6079 85.6344 40.4702C85.6032 40.3325 85.6216 40.1863 85.6854 40.0639L100.744 11.2422C100.797 11.1403 100.877 11.0609 100.974 11.0162C101.07 10.9716 101.177 10.9643 101.277 10.9955C101.377 11.0267 101.466 11.0946 101.528 11.1886C101.591 11.2827 101.625 11.3976 101.624 11.5156H101.623Z" fill="#3F3D56"/>
<path d="M79.5427 2.41025V9.57673C79.5421 10.2157 79.3181 10.8283 78.9198 11.2802C78.5214 11.732 77.9814 11.9861 77.4181 11.9868H65.1184C64.5551 11.9861 64.0151 11.732 63.6168 11.2802C63.2184 10.8283 62.9944 10.2157 62.9938 9.57673V2.41025C62.9944 1.77126 63.2184 1.15865 63.6168 0.706819C64.0151 0.254988 64.5551 0.000847816 65.1184 0.00015831L77.4181 0.00015831C77.9814 0.000847816 78.5214 0.254988 78.9198 0.706819C79.3181 1.15865 79.5421 1.77126 79.5427 2.41025Z" fill="#E6E6E6"/>
<path d="M109.287 2.41025V9.57673C109.286 10.2157 109.062 10.8283 108.664 11.2802C108.266 11.732 107.725 11.9861 107.162 11.9868H94.8625C94.2992 11.9861 93.7591 11.732 93.3608 11.2802C92.9625 10.8283 92.7385 10.2157 92.7379 9.57673V2.41025C92.7385 1.77126 92.9625 1.15865 93.3608 0.706819C93.7591 0.254988 94.2992 0.000847816 94.8625 0.00015831L107.162 0.00015831C107.725 0.000847816 108.266 0.254988 108.664 0.706819C109.062 1.15865 109.286 1.77126 109.287 2.41025Z" fill="#E6E6E6"/>
<path d="M64.8854 141.885H52.5853C52.022 141.884 51.482 141.63 51.0837 141.178C50.6854 140.726 50.4613 140.113 50.4607 139.474V132.308C50.4613 131.669 50.6854 131.056 51.0837 130.604C51.482 130.152 52.022 129.898 52.5853 129.897H64.8854C65.4487 129.898 65.9887 130.152 66.3871 130.604C66.7854 131.056 67.0094 131.669 67.01 132.308V139.474C67.0094 140.113 66.7854 140.726 66.3871 141.177C65.9887 141.629 65.4487 141.884 64.8854 141.885Z" fill="#E6E6E6"/>
<path d="M119.565 141.885H107.265C106.701 141.884 106.161 141.63 105.763 141.178C105.365 140.726 105.141 140.113 105.14 139.474V132.308C105.141 131.669 105.365 131.056 105.763 130.604C106.161 130.152 106.701 129.898 107.265 129.897H119.564C120.128 129.898 120.668 130.152 121.066 130.604C121.464 131.056 121.688 131.669 121.689 132.308V139.474C121.689 140.113 121.465 140.726 121.066 141.178C120.668 141.629 120.128 141.884 119.565 141.885Z" fill="#E6E6E6"/>
<path d="M94.5416 168.128H82.2415C81.6782 168.127 81.1382 167.873 80.7399 167.421C80.3416 166.969 80.1175 166.357 80.1169 165.718V158.551C80.1175 157.912 80.3416 157.299 80.7399 156.847C81.1382 156.395 81.6782 156.141 82.2415 156.141H94.5416C95.1049 156.141 95.6449 156.395 96.0432 156.847C96.4416 157.299 96.6656 157.912 96.6662 158.551V165.717C96.6657 166.356 96.4417 166.969 96.0434 167.421C95.6451 167.873 95.105 168.127 94.5416 168.128Z" fill="#E6E6E6"/>
<path d="M146.947 168.128H134.647C134.084 168.127 133.544 167.873 133.146 167.421C132.747 166.969 132.523 166.357 132.523 165.718V158.551C132.523 157.912 132.747 157.299 133.146 156.847C133.544 156.395 134.084 156.141 134.647 156.141H146.947C147.511 156.141 148.051 156.395 148.449 156.847C148.847 157.299 149.071 157.912 149.072 158.551V165.717C149.071 166.356 148.847 166.969 148.449 167.421C148.051 167.872 147.511 168.127 146.947 168.127V168.128Z" fill="#2BBB35"/>
<path d="M119.565 168.128H107.265C106.701 168.127 106.161 167.873 105.763 167.421C105.365 166.969 105.141 166.357 105.14 165.718V158.551C105.141 157.912 105.365 157.299 105.763 156.847C106.161 156.395 106.701 156.141 107.265 156.141H119.564C120.128 156.141 120.668 156.395 121.066 156.847C121.464 157.299 121.688 157.912 121.689 158.551V165.717C121.689 166.356 121.465 166.969 121.066 167.421C120.668 167.873 120.128 168.127 119.565 168.128Z" fill="#E6E6E6"/>
<path d="M101.07 86.9223H71.1663C70.603 86.9217 70.0629 86.6675 69.6646 86.2157C69.2663 85.7639 69.0423 85.1512 69.0417 84.5122V70.6991C69.0423 70.0602 69.2663 69.4476 69.6646 68.9957C70.0629 68.5439 70.603 68.2898 71.1663 68.2891H101.07C101.634 68.2898 102.174 68.5439 102.572 68.9957C102.97 69.4476 103.194 70.0602 103.195 70.6991V84.5127C103.194 85.1517 102.97 85.7643 102.572 86.2161C102.174 86.668 101.634 86.9221 101.07 86.9228L101.07 86.9223Z" fill="#2BBB35"/>
<path d="M158.998 86.9223H129.094C128.531 86.9217 127.991 86.6675 127.593 86.2157C127.194 85.7639 126.97 85.1512 126.97 84.5122V70.6991C126.97 70.0602 127.194 69.4476 127.593 68.9957C127.991 68.5439 128.531 68.2898 129.094 68.2891H158.998C159.562 68.2898 160.102 68.5439 160.5 68.9957C160.898 69.4476 161.122 70.0602 161.123 70.6991V84.5127C161.122 85.1517 160.898 85.7643 160.5 86.2161C160.102 86.668 159.562 86.9221 158.998 86.9228L158.998 86.9223Z" fill="#E6E6E6"/>
</svg>
