<svg width="306" height="225" viewBox="0 0 306 225" fill="none" xmlns="http://www.w3.org/2000/svg">
<path d="M283.894 0H4.91786C3.60289 0.0132647 2.34671 0.565038 1.42481 1.5343C0.502903 2.50355 -0.00945522 3.81116 0.000132167 5.17032V201.075C-0.00731543 202.432 0.506071 203.737 1.42782 204.704C2.34957 205.671 3.60454 206.221 4.91786 206.234H283.895C285.208 206.221 286.463 205.672 287.384 204.705C288.306 203.738 288.82 202.434 288.813 201.076V5.17191C288.822 3.81281 288.31 2.50526 287.388 1.53602C286.466 0.56677 285.21 0.01495 283.895 0.00158124L283.894 0Z" fill="#090814"/>
<path d="M275.649 1.02423H5.20943C3.94384 1.02653 2.73085 1.54776 1.83669 2.47351C0.942537 3.39926 0.440285 4.65388 0.440186 5.96198V193.034C0.441907 194.341 0.944936 195.594 1.83898 196.518C2.73302 197.442 3.94511 197.962 5.20943 197.963H275.647C276.912 197.962 278.124 197.442 279.018 196.518C279.912 195.594 280.415 194.341 280.416 193.034V5.96119C280.416 4.65353 279.915 3.39928 279.021 2.47358C278.127 1.54789 276.915 1.02637 275.65 1.02344L275.649 1.02423Z" fill="white"/>
<path d="M35.4445 147.532V69.6511L28.6252 68.0801V154.582L80.0786 154.038L79.9048 147.064L35.4445 147.532Z" fill="#F2F2F2"/>
<path d="M86.2785 161.086H24.2856V57.9263H86.2785V161.086ZM25.5263 159.804H85.0387V59.2078H25.5263V159.804Z" fill="#3F3D56"/>
<path d="M39.9068 64.3325H29.8658V65.6126H39.9068V64.3325Z" fill="#3F3D56"/>
<path d="M39.9068 67.5361H29.8658V68.8162H39.9068V67.5361Z" fill="#3F3D56"/>
<path d="M39.9068 70.7402H29.8658V72.0203H39.9068V70.7402Z" fill="#3F3D56"/>
<path d="M77.7216 125.843H34.8252V127.123H77.7216V125.843Z" fill="#3F3D56"/>
<path d="M77.7216 132.893H34.8252V134.173H77.7216V132.893Z" fill="#3F3D56"/>
<path d="M77.7216 139.94H34.8252V141.22H77.7216V139.94Z" fill="#3F3D56"/>
<path d="M76.9792 72.6624C76.1209 72.6624 75.2819 72.3994 74.5683 71.9065C73.8546 71.4137 73.2984 70.7132 72.97 69.8936C72.6415 69.074 72.5556 68.1722 72.723 67.3021C72.8905 66.4321 73.3038 65.6329 73.9107 65.0056C74.5176 64.3783 75.2908 63.9511 76.1326 63.7781C76.9743 63.605 77.8469 63.6938 78.6398 64.0333C79.4327 64.3728 80.1105 64.9477 80.5873 65.6853C81.0641 66.4229 81.3187 67.2901 81.3187 68.1772C81.3187 69.3667 80.8615 70.5076 80.0476 71.3487C79.2338 72.1899 78.1301 72.6624 76.9792 72.6624ZM76.9792 64.9734C76.3661 64.9734 75.7668 65.1613 75.2571 65.5133C74.7473 65.8654 74.3501 66.3657 74.1155 66.9511C73.8808 67.5366 73.8195 68.1807 73.9391 68.8022C74.0587 69.4237 74.3539 69.9945 74.7874 70.4426C75.2209 70.8906 75.7732 71.1958 76.3744 71.3194C76.9757 71.443 77.5989 71.3796 78.1653 71.1371C78.7317 70.8946 79.2158 70.4839 79.5564 69.9571C79.897 69.4302 80.0788 68.8108 80.0788 68.1772C80.0788 67.3275 79.7522 66.5126 79.1709 65.9118C78.5896 65.3109 77.8012 64.9734 76.9792 64.9734Z" fill="#3F3D56"/>
<path d="M78.2195 111.107H34.2053V81.6328H78.2195V111.107ZM35.4452 109.825H76.9796V82.9143H35.4452V109.825Z" fill="#3F3D56"/>
<path d="M35.1589 81.7335L34.4923 82.814L77.2667 111.007L77.9333 109.926L35.1589 81.7335Z" fill="#3F3D56"/>
<path d="M77.2651 81.7315L34.4907 109.924L35.1574 111.005L77.9317 82.812L77.2651 81.7315Z" fill="#3F3D56"/>
<path d="M200.602 147.532V69.6511L193.783 68.0801V154.582L245.236 154.038L245.063 147.064L200.602 147.532Z" fill="#F2F2F2"/>
<path d="M251.436 161.086H189.443V57.9263H251.436V161.086ZM190.684 159.804H250.197V59.2078H190.684V159.804Z" fill="#3F3D56"/>
<path d="M205.065 64.3325H195.024V65.6126H205.065V64.3325Z" fill="#3F3D56"/>
<path d="M205.065 67.5361H195.024V68.8162H205.065V67.5361Z" fill="#3F3D56"/>
<path d="M205.065 70.7402H195.024V72.0203H205.065V70.7402Z" fill="#3F3D56"/>
<path d="M242.879 125.843H199.983V127.123H242.879V125.843Z" fill="#3F3D56"/>
<path d="M242.879 132.893H199.983V134.173H242.879V132.893Z" fill="#3F3D56"/>
<path d="M242.879 139.94H199.983V141.22H242.879V139.94Z" fill="#3F3D56"/>
<path d="M242.137 72.6624C241.279 72.6624 240.44 72.3994 239.726 71.9065C239.013 71.4137 238.456 70.7132 238.128 69.8936C237.799 69.074 237.714 68.1722 237.881 67.3021C238.048 66.4321 238.462 65.6329 239.069 65.0056C239.676 64.3783 240.449 63.9511 241.291 63.7781C242.132 63.605 243.005 63.6938 243.798 64.0333C244.591 64.3728 245.268 64.9477 245.745 65.6853C246.222 66.4229 246.477 67.2901 246.477 68.1772C246.477 69.3667 246.019 70.5076 245.206 71.3487C244.392 72.1899 243.288 72.6624 242.137 72.6624ZM242.137 64.9734C241.524 64.9734 240.925 65.1613 240.415 65.5133C239.905 65.8654 239.508 66.3657 239.273 66.9511C239.039 67.5366 238.977 68.1807 239.097 68.8022C239.217 69.4237 239.512 69.9945 239.945 70.4426C240.379 70.8906 240.931 71.1958 241.532 71.3194C242.134 71.443 242.757 71.3796 243.323 71.1371C243.89 70.8946 244.374 70.4839 244.714 69.9571C245.055 69.4302 245.237 68.8108 245.237 68.1772C245.237 67.3275 244.91 66.5126 244.329 65.9118C243.748 65.3109 242.959 64.9734 242.137 64.9734Z" fill="#3F3D56"/>
<path d="M243.377 111.107H199.363V81.6328H243.377V111.107ZM200.603 109.825H242.137V82.9143H200.603V109.825Z" fill="#3F3D56"/>
<path d="M200.317 81.7335L199.65 82.814L242.425 111.007L243.091 109.926L200.317 81.7335Z" fill="#3F3D56"/>
<path d="M242.423 81.7315L199.649 109.924L200.315 111.005L243.09 82.812L242.423 81.7315Z" fill="#3F3D56"/>
<path d="M118.023 147.532V69.6511L111.204 68.0801V154.582L162.658 154.038L162.484 147.064L118.023 147.532Z" fill="#F2F2F2"/>
<path d="M168.858 161.086H106.865V57.9263H168.858V161.086ZM108.105 159.804H167.618V59.2078H108.105V159.804Z" fill="#3F3D56"/>
<path d="M122.486 64.3325H112.445V65.6126H122.486V64.3325Z" fill="#3F3D56"/>
<path d="M122.486 67.5361H112.445V68.8162H122.486V67.5361Z" fill="#3F3D56"/>
<path d="M122.486 70.7402H112.445V72.0203H122.486V70.7402Z" fill="#3F3D56"/>
<path d="M160.301 125.843H117.404V127.123H160.301V125.843Z" fill="#3F3D56"/>
<path d="M160.301 132.893H117.404V134.173H160.301V132.893Z" fill="#3F3D56"/>
<path d="M160.301 139.94H117.404V141.22H160.301V139.94Z" fill="#3F3D56"/>
<path d="M159.558 72.6624C158.7 72.6624 157.861 72.3994 157.147 71.9065C156.434 71.4137 155.878 70.7132 155.549 69.8936C155.221 69.074 155.135 68.1722 155.302 67.3021C155.47 66.4321 155.883 65.6329 156.49 65.0056C157.097 64.3783 157.87 63.9511 158.712 63.7781C159.554 63.605 160.426 63.6938 161.219 64.0333C162.012 64.3728 162.69 64.9477 163.167 65.6853C163.643 66.4229 163.898 67.2901 163.898 68.1772C163.898 69.3667 163.441 70.5076 162.627 71.3487C161.813 72.1899 160.709 72.6624 159.558 72.6624ZM159.558 64.9734C158.945 64.9734 158.346 65.1613 157.836 65.5133C157.327 65.8654 156.929 66.3657 156.695 66.9511C156.46 67.5366 156.399 68.1807 156.518 68.8022C156.638 69.4237 156.933 69.9945 157.367 70.4426C157.8 70.8906 158.352 71.1958 158.954 71.3194C159.555 71.443 160.178 71.3796 160.745 71.1371C161.311 70.8946 161.795 70.4839 162.136 69.9571C162.476 69.4302 162.658 68.8108 162.658 68.1772C162.658 67.3275 162.331 66.5126 161.75 65.9118C161.169 65.3109 160.38 64.9734 159.558 64.9734Z" fill="#3F3D56"/>
<path d="M160.799 111.107H116.784V81.6328H160.799V111.107ZM118.024 109.825H159.559V82.9143H118.024V109.825Z" fill="#3F3D56"/>
<path d="M117.738 81.7335L117.071 82.814L159.846 111.007L160.512 109.926L117.738 81.7335Z" fill="#3F3D56"/>
<path d="M159.844 81.7315L117.07 109.924L117.736 111.005L160.511 82.812L159.844 81.7315Z" fill="#3F3D56"/>
<path d="M280.418 224.405C294.546 224.405 306 212.567 306 197.963C306 183.36 294.546 171.521 280.418 171.521C266.289 171.521 254.835 183.36 254.835 197.963C254.835 212.567 266.289 224.405 280.418 224.405Z" fill="#2BBB35"/>
<path d="M277.677 209.155C277.366 209.156 277.058 209.093 276.771 208.97C276.484 208.847 276.223 208.666 276.004 208.439L267.894 199.6C267.456 199.14 267.212 198.519 267.215 197.874C267.217 197.229 267.467 196.611 267.908 196.155C268.349 195.698 268.947 195.441 269.572 195.438C270.196 195.435 270.796 195.687 271.241 196.14L277.677 203.248L289.574 186.844C289.793 186.614 290.054 186.431 290.342 186.305C290.63 186.18 290.94 186.114 291.252 186.113C291.565 186.111 291.875 186.174 292.164 186.297C292.453 186.42 292.715 186.601 292.936 186.829C293.157 187.058 293.332 187.329 293.451 187.628C293.57 187.927 293.631 188.247 293.63 188.57C293.628 188.893 293.565 189.213 293.444 189.51C293.322 189.808 293.145 190.078 292.922 190.304L279.351 208.439C279.132 208.666 278.871 208.847 278.583 208.97C278.296 209.093 277.988 209.156 277.677 209.155Z" fill="#F2F2F2"/>
<path d="M250.56 32.7892H25.1627C24.92 32.7542 24.6976 32.6297 24.5367 32.4387C24.3758 32.2477 24.2872 32.003 24.2872 31.7498C24.2872 31.4966 24.3758 31.252 24.5367 31.061C24.6976 30.8699 24.92 30.7455 25.1627 30.7104H250.56C250.802 30.7455 251.025 30.8699 251.186 31.061C251.347 31.252 251.435 31.4966 251.435 31.7498C251.435 32.003 251.347 32.2477 251.186 32.4387C251.025 32.6297 250.802 32.7542 250.56 32.7892Z" fill="#CACACA"/>
<path d="M30.1837 25.3996C33.4408 25.3996 36.0811 22.6096 36.0811 19.168C36.0811 15.7265 33.4408 12.9365 30.1837 12.9365C26.9267 12.9365 24.2864 15.7265 24.2864 19.168C24.2864 22.6096 26.9267 25.3996 30.1837 25.3996Z" fill="#2BBB35"/>
<path d="M50.5568 25.3996C53.8138 25.3996 56.4541 22.6096 56.4541 19.168C56.4541 15.7265 53.8138 12.9365 50.5568 12.9365C47.2998 12.9365 44.6594 15.7265 44.6594 19.168C44.6594 22.6096 47.2998 25.3996 50.5568 25.3996Z" fill="#2BBB35"/>
<path d="M70.9292 25.3996C74.1862 25.3996 76.8266 22.6096 76.8266 19.168C76.8266 15.7265 74.1862 12.9365 70.9292 12.9365C67.6722 12.9365 65.0319 15.7265 65.0319 19.168C65.0319 22.6096 67.6722 25.3996 70.9292 25.3996Z" fill="#2BBB35"/>
<path d="M245.539 25.3996C248.796 25.3996 251.436 22.6096 251.436 19.168C251.436 15.7265 248.796 12.9365 245.539 12.9365C242.282 12.9365 239.642 15.7265 239.642 19.168C239.642 22.6096 242.282 25.3996 245.539 25.3996Z" fill="#E6E6E6"/>
</svg>
