<svg width="306" height="197" viewBox="0 0 306 197" fill="none" xmlns="http://www.w3.org/2000/svg">
<g clip-path="url(#clip0_20_289)">
<path d="M293.003 160.259H0V0H293.003V160.259Z" fill="white"/>
<path d="M293.003 160.259H0V0H293.003V160.259ZM4.32906 157.183H288.674V3.07584H4.32906V157.183Z" fill="#E5E5E5"/>
<path d="M64.0088 120.805H41.825C41.2243 120.804 40.6484 120.635 40.2236 120.333C39.7988 120.031 39.5599 119.622 39.5591 119.195V97.4671C39.5599 97.0403 39.7988 96.6311 40.2236 96.3293C40.6484 96.0276 41.2243 95.8579 41.825 95.8574H64.0088C64.6095 95.8579 65.1855 96.0276 65.6103 96.3295C66.0351 96.6313 66.2741 97.0405 66.2747 97.4674V119.195C66.2741 119.622 66.0351 120.031 65.6103 120.333C65.1855 120.635 64.6095 120.805 64.0088 120.805V120.805Z" fill="#E6E6E6"/>
<path d="M104.464 120.805H82.2803C81.6796 120.804 81.1037 120.635 80.6789 120.333C80.2541 120.031 80.0151 119.622 80.0144 119.195V76.8585C80.015 76.4316 80.2539 76.0224 80.6787 75.7206C81.1035 75.4187 81.6795 75.249 82.2803 75.2485H104.464C105.065 75.249 105.641 75.4187 106.065 75.7204C106.49 76.0222 106.729 76.4314 106.73 76.8582V119.195C106.729 119.622 106.49 120.031 106.066 120.333C105.641 120.635 105.065 120.804 104.464 120.805Z" fill="#E6E6E6"/>
<path d="M144.919 120.805H122.735C122.134 120.804 121.559 120.635 121.134 120.333C120.709 120.031 120.47 119.622 120.469 119.195V97.4671C120.47 97.0403 120.709 96.6311 121.134 96.3293C121.559 96.0276 122.134 95.8579 122.735 95.8574H144.919C145.52 95.8579 146.096 96.0276 146.52 96.3295C146.945 96.6313 147.184 97.0405 147.185 97.4674V119.195C147.184 119.622 146.945 120.031 146.52 120.333C146.096 120.634 145.52 120.804 144.919 120.805Z" fill="#E6E6E6"/>
<path d="M185.374 120.805H163.19C162.603 120.814 162.035 120.657 161.61 120.369C161.186 120.081 160.939 119.685 160.924 119.268V68.6506C160.939 68.2335 161.186 67.8376 161.61 67.5495C162.035 67.2614 162.603 67.1047 163.19 67.1136H185.374C185.961 67.1047 186.529 67.2614 186.954 67.5495C187.379 67.8376 187.625 68.2335 187.64 68.6506V119.268C187.625 119.685 187.379 120.081 186.954 120.369C186.529 120.657 185.961 120.814 185.374 120.805Z" fill="#E6E6E6"/>
<path d="M225.829 120.805H203.646C203.045 120.804 202.469 120.635 202.044 120.333C201.619 120.031 201.38 119.622 201.38 119.195V54.0802C201.38 53.6533 201.619 53.2441 202.044 52.9422C202.469 52.6404 203.045 52.4707 203.646 52.4702H225.829C226.43 52.4707 227.006 52.6404 227.431 52.9421C227.856 53.2439 228.094 53.653 228.095 54.0798V119.195C228.095 119.622 227.856 120.031 227.431 120.333C227.006 120.635 226.43 120.804 225.829 120.805Z" fill="#F2F2F2"/>
<path d="M52.9166 89.3492C55.446 89.3492 57.4964 87.8924 57.4964 86.0953C57.4964 84.2982 55.446 82.8413 52.9166 82.8413C50.3873 82.8413 48.3369 84.2982 48.3369 86.0953C48.3369 87.8924 50.3873 89.3492 52.9166 89.3492Z" fill="#090814"/>
<path d="M93.3719 68.1978C95.9012 68.1978 97.9516 66.741 97.9516 64.9439C97.9516 63.1468 95.9012 61.6899 93.3719 61.6899C90.8426 61.6899 88.7922 63.1468 88.7922 64.9439C88.7922 66.741 90.8426 68.1978 93.3719 68.1978Z" fill="#090814"/>
<path d="M133.827 89.3492C136.356 89.3492 138.407 87.8924 138.407 86.0953C138.407 84.2982 136.356 82.8413 133.827 82.8413C131.298 82.8413 129.247 84.2982 129.247 86.0953C129.247 87.8924 131.298 89.3492 133.827 89.3492Z" fill="#090814"/>
<path d="M174.282 57.8932C176.812 57.8932 178.862 56.4363 178.862 54.6392C178.862 52.8421 176.812 51.3853 174.282 51.3853C171.753 51.3853 169.703 52.8421 169.703 54.6392C169.703 56.4363 171.753 57.8932 174.282 57.8932Z" fill="#090814"/>
<path d="M214.737 45.962C217.267 45.962 219.317 44.5052 219.317 42.7081C219.317 40.9109 217.267 39.4541 214.737 39.4541C212.208 39.4541 210.157 40.9109 210.157 42.7081C210.157 44.5052 212.208 45.962 214.737 45.962Z" fill="#090814"/>
<path d="M133.924 86.8241L93.3719 65.2445L53.3767 86.5303L52.4613 85.6631L93.3738 63.89L133.732 85.3696L173.838 54.1862L173.999 54.1399L214.454 42.5586L215.025 43.5649L174.728 55.0964L133.924 86.8241Z" fill="#090814"/>
<path d="M271.329 191.686H264.436L261.158 172.802H271.329V191.686Z" fill="#FFB6B6"/>
<path d="M246.701 111.755L250.613 154.419L263.748 184.451L276.882 184.943L268.815 148.354L271.056 124.048C271.056 124.048 281.678 118.628 275.805 112.105L246.701 111.755Z" fill="#090814"/>
<path d="M275.824 191.686H268.935L265.657 172.802H275.827L275.824 191.686Z" fill="#FFB6B6"/>
<path d="M272.99 196.601H253.947C252.309 196.598 250.694 196.336 249.217 195.834L245.704 194.633C245.318 194.501 244.997 194.288 244.784 194.023C244.572 193.758 244.479 193.453 244.517 193.149C244.556 192.846 244.724 192.557 244.999 192.323C245.274 192.089 245.643 191.92 246.056 191.839L253.3 190.414L265.688 185.787L265.697 185.82C265.929 186.654 266.29 187.914 266.335 187.988C267.605 189.024 268.911 189.499 270.213 189.404C272.487 189.239 273.998 187.374 274.016 187.355L274.029 187.339H274.052C274.283 187.346 274.509 187.391 274.713 187.47C274.916 187.549 275.091 187.66 275.225 187.795C275.742 188.349 275.426 189.207 275.377 189.334C275.997 189.765 276.277 192.178 276.3 192.372C277.2 193.049 277.624 193.699 277.57 194.304C277.522 194.595 277.387 194.877 277.175 195.129C276.963 195.381 276.678 195.598 276.34 195.767C275.39 196.304 274.21 196.594 272.996 196.59L272.99 196.601Z" fill="#090814" stroke="#06060F" stroke-width="1.5" stroke-miterlimit="10"/>
<path d="M291.885 49.93C291.885 48.2608 291.233 46.6243 290.002 45.2024C288.772 43.7804 287.011 42.6286 284.914 41.8747C282.818 41.1209 280.469 40.7946 278.128 40.932C275.786 41.0694 273.544 41.6652 271.651 42.6532C269.757 43.6412 268.286 44.9827 267.4 46.5289C266.515 48.075 266.25 49.7653 266.635 51.412C267.019 53.0587 268.039 54.5974 269.58 55.8573C271.121 57.1172 273.124 58.049 275.365 58.5492L277.824 70.0894L290.353 62.671C288.644 61.0742 287.245 59.3216 286.194 57.4602C287.945 56.6375 289.382 55.5189 290.375 54.2047C291.369 52.8905 291.887 51.4218 291.885 49.93Z" fill="#FFB9B9"/>
<path d="M251.197 111.755L255.109 154.419L268.186 184.663L278.419 184.955L273.311 148.355L275.551 124.049C275.551 124.049 286.173 118.629 280.3 112.106L251.197 111.755Z" fill="#090814"/>
<path d="M272.405 118.613C260.669 118.613 246.858 113.518 246.058 113.219L245.835 113.135L272.768 64.3173L286.106 59.8399C287.133 59.4956 288.271 59.3522 289.402 59.4245C290.533 59.4968 291.617 59.7821 292.541 60.2512C293.465 60.7202 294.196 61.3559 294.66 62.0926C295.123 62.8294 295.301 63.6407 295.175 64.4427L289.882 98.1809L284.357 115.655L284.298 115.696C281.248 117.837 276.984 118.613 272.405 118.613Z" fill="#2BBB35"/>
<path d="M229.367 86.2964C230.065 85.9819 230.852 85.78 231.671 85.7049C232.491 85.6298 233.323 85.6832 234.111 85.8615C234.898 86.0398 235.621 86.3386 236.228 86.7369C236.835 87.1351 237.312 87.6231 237.625 88.1665L257.683 87.388L252.421 93.7918L234.182 93.549C232.862 93.8619 231.427 93.82 230.149 93.4314C228.87 93.0429 227.836 92.3346 227.243 91.4407C226.65 90.5468 226.538 89.5293 226.93 88.5811C227.322 87.6329 228.19 86.8198 229.369 86.2957L229.367 86.2964Z" fill="#FFB6B6"/>
<path d="M268.946 96.3217L248.848 95.9572L249.107 86.5112L258.611 84.3619L274.2 68.8269C274.981 68.0498 275.973 67.3918 277.118 66.8917C278.263 66.3917 279.538 66.0597 280.866 65.9155C282.195 65.7713 283.55 65.8177 284.853 66.052C286.156 66.2863 287.38 66.7038 288.451 67.2797C289.523 67.8557 290.422 68.5784 291.094 69.4053C291.766 70.2322 292.199 71.1464 292.365 72.0939C292.532 73.0414 292.429 74.0031 292.064 74.922C291.699 75.8409 291.078 76.6985 290.238 77.4441L268.946 96.3217Z" fill="#2BBB35"/>
<path d="M263.687 40.6455C265.035 39.6636 266.786 39.0106 268.689 38.7804C270.544 38.4969 272.579 38.4088 274.063 37.5823C275.749 36.6277 276.491 34.814 278.56 34.4114C279.459 34.2829 280.392 34.3355 281.252 34.5632C284.557 35.2716 287.491 36.6616 289.683 38.5569C290.199 39.1 290.858 39.5677 291.622 39.9347C292.079 40.0723 292.526 40.2269 292.96 40.398C293.436 40.665 293.811 41.0122 294.05 41.4083C295.542 43.5473 295.885 45.9991 295.017 48.3051C294.501 49.6669 293.567 50.929 293.016 52.2988C292.465 53.6686 289.918 56.2745 289.322 55.6275C288.726 54.9804 287.961 54.3774 287.636 53.6306C287 52.1631 287.574 50.6835 285.957 49.6616C284.956 49.0305 283.146 48.6073 282.466 49.4221C282.196 49.7376 282.213 50.1368 281.983 50.4644C281.527 51.1034 280.212 51.2315 279.341 50.8646C278.501 50.4528 277.911 49.831 277.688 49.1236C276.379 45.9767 274.147 43.9958 269.409 45.3416C267.644 45.8449 265.564 46.1841 263.867 45.3216C261.63 44.1876 262.086 41.9393 263.687 40.6455Z" fill="#090814"/>
<path d="M233.698 125.996H211.515C210.914 125.996 210.338 125.826 209.913 125.524C209.488 125.222 209.249 124.813 209.249 124.386V59.2717C209.249 58.845 209.488 58.4358 209.913 58.134C210.338 57.8323 210.914 57.6626 211.515 57.6621H233.698C234.299 57.6626 234.875 57.8323 235.3 58.1341C235.725 58.436 235.964 58.8452 235.964 59.2721V124.386C235.963 124.813 235.725 125.222 235.3 125.524C234.875 125.826 234.299 125.996 233.698 125.996Z" fill="#2BBB35"/>
<path d="M228.805 91.8872C229.503 91.5727 230.29 91.3708 231.109 91.2957C231.929 91.2206 232.762 91.2741 233.549 91.4524C234.336 91.6307 235.059 91.9295 235.666 92.3277C236.273 92.7259 236.75 93.2139 237.063 93.7573L257.119 92.9788L251.857 99.3827L233.618 99.1399C232.299 99.4527 230.864 99.4108 229.585 99.0223C228.306 98.6337 227.272 97.9254 226.679 97.0315C226.086 96.1376 225.975 95.1202 226.367 94.172C226.759 93.2237 227.626 92.4106 228.805 91.8865V91.8872Z" fill="#FFB6B6"/>
<path d="M268.386 101.914L248.287 101.549L248.546 92.103L258.05 89.9537L273.64 74.4184C274.419 73.6386 275.411 72.9779 276.556 72.4755C277.702 71.9731 278.978 71.6391 280.308 71.4935C281.638 71.3478 282.997 71.3935 284.302 71.6276C285.607 71.8618 286.833 72.2797 287.906 72.8566C288.98 73.4336 289.88 74.1578 290.552 74.9863C291.225 75.8149 291.656 76.7309 291.821 77.6802C291.986 78.6294 291.881 79.5925 291.513 80.5124C291.144 81.4323 290.52 82.2903 289.676 83.0355L268.386 101.914Z" fill="#2BBB35"/>
<path d="M305.774 197H219.544C219.419 197 219.317 196.821 219.317 196.6C219.317 196.378 219.419 196.2 219.544 196.2H305.774C305.899 196.2 306 196.378 306 196.6C306 196.821 305.898 197 305.774 197Z" fill="#CACACA"/>
</g>
<defs>
<clipPath id="clip0_20_289">
<rect width="306" height="197" fill="white"/>
</clipPath>
</defs>
</svg>
