<svg width="306" height="197" viewBox="0 0 306 197" fill="none" xmlns="http://www.w3.org/2000/svg">
<g clip-path="url(#clip0_20_75)">
<path opacity="0.998" d="M276.665 71.0903H258.991V77.8489H276.665V71.0903Z" fill="#F2F2F2"/>
<path opacity="0.998" d="M263.749 21.7778H246.075V28.5364H263.749V21.7778Z" fill="#F2F2F2"/>
<path opacity="0.998" d="M276.325 29.5376H258.651V36.2962H276.325V29.5376Z" fill="#F2F2F2"/>
<path opacity="0.998" d="M242.337 22.2783H224.663V29.0369H242.337V22.2783Z" fill="#F2F2F2"/>
<path opacity="0.998" d="M17.6739 94.8706H0V101.629H17.6739V94.8706Z" fill="#F2F2F2"/>
<path opacity="0.998" d="M277.684 37.7979H260.01V44.5564H277.684V37.7979Z" fill="#F2F2F2"/>
<path opacity="0.998" d="M254.912 30.0381H237.238V36.7967H254.912V30.0381Z" fill="#F2F2F2"/>
<path opacity="0.998" d="M298.077 89.3633H280.403V96.1219H298.077V89.3633Z" fill="#F2F2F2"/>
<path opacity="0.998" d="M276.665 89.8643H258.991V96.6228H276.665V89.8643Z" fill="#F2F2F2"/>
<path opacity="0.998" d="M17.6739 71.0903H0V77.8489H17.6739V71.0903Z" fill="#F2F2F2"/>
<path opacity="0.998" d="M30.2496 78.8501H12.5757V85.6087H30.2496V78.8501Z" fill="#F2F2F2"/>
<path opacity="0.998" d="M125.757 0H108.083V6.75858H125.757V0Z" fill="#F2F2F2"/>
<path opacity="0.998" d="M265.109 124.658H247.435V131.417H265.109V124.658Z" fill="#F2F2F2"/>
<path opacity="0.998" d="M31.6091 87.1104H13.9352V93.8689H31.6091V87.1104Z" fill="#F2F2F2"/>
<path opacity="0.998" d="M138.332 7.75977H120.658V14.5183H138.332V7.75977Z" fill="#F2F2F2"/>
<path opacity="0.998" d="M73.7546 53.5679H56.0807V60.3264H73.7546V53.5679Z" fill="#F2F2F2"/>
<path opacity="0.998" d="M86.3303 61.3276H68.6563V68.0862H86.3303V61.3276Z" fill="#F2F2F2"/>
<path opacity="0.998" d="M119.979 57.0723H102.305V63.8308H119.979V57.0723Z" fill="#F2F2F2"/>
<path opacity="0.998" d="M87.6898 69.5884H70.0159V76.347H87.6898V69.5884Z" fill="#F2F2F2"/>
<path opacity="0.998" d="M288.901 124.658H271.227V131.417H288.901V124.658Z" fill="#F2F2F2"/>
<path d="M170.988 14.4106C177.8 14.4106 184.333 16.4036 189.15 19.9512C193.967 23.4987 196.673 28.3102 196.673 33.3272V41.3974H145.303V33.3272C145.303 28.3102 148.009 23.4987 152.826 19.9512C157.643 16.4036 164.176 14.4106 170.988 14.4106Z" fill="#CACACA"/>
<path d="M171.168 58.8597C187.338 58.8597 200.446 52.2262 200.446 44.0434C200.446 35.8605 187.338 29.2271 171.168 29.2271C154.999 29.2271 141.891 35.8605 141.891 44.0434C141.891 52.2262 154.999 58.8597 171.168 58.8597Z" fill="#CACACA"/>
<path d="M152.4 58.3965C152.4 58.3965 158.518 81.9439 152.4 88.2944C146.282 94.645 171.094 97.1582 171.094 97.1582L196.775 90.2795L200.368 73.3455C200.368 73.3455 184.733 66.8622 187.972 53.7656L152.4 58.3965Z" fill="#FFB9B9"/>
<path d="M228.201 137.772C228.201 137.772 229.819 142.931 221.016 143.857C215.818 144.42 210.532 144.374 205.354 143.72L203.413 130.761H223.891L228.201 137.772Z" fill="#FFB9B9"/>
<path d="M72.7588 131.169C72.7588 131.169 68.8705 142.806 77.6735 143.858C86.4764 144.909 118.799 144.916 118.799 144.916V131.149L104.164 133.452L90.4259 123.75L72.7588 131.169Z" fill="#FFB9B9"/>
<path opacity="0.1" d="M154.29 66.0037L119.89 71.3605C119.89 71.3605 106.778 71.7585 98.3349 84.5898C89.8922 97.4211 71.5692 134.068 71.5692 134.068C71.5692 134.068 87.2038 122.425 105.52 134.861L117.735 118.59L115.04 144.388H209.691V132.215C209.691 132.215 229.448 140.02 228.014 144.386C228.014 144.386 244.923 112.3 241.269 97.719C240.169 93.2113 239.495 88.653 239.25 84.0767C239.035 80.3076 237.24 76.6801 234.114 73.6921C230.987 70.704 226.681 68.5019 221.787 67.388C220.006 66.985 218.049 66.607 215.873 66.2691C195.575 63.095 190.382 66.2691 190.382 66.2691C190.382 66.2691 186.45 75.691 186.521 79.9615C186.609 85.4509 175.923 89.0905 175.923 89.0905C175.923 89.0905 160.115 86.312 159.398 84.0642C158.681 81.8163 153.025 68.6496 154.29 66.0037Z" fill="black"/>
<path d="M154.29 65.4754L119.89 70.8322C119.89 70.8322 106.778 71.2302 98.3349 84.0615C89.8922 96.8928 71.5657 133.544 71.5657 133.544C71.5657 133.544 87.2004 121.902 105.517 134.338L117.732 118.067L115.037 143.857H209.691V131.687C209.691 131.687 229.448 139.492 228.014 143.857C228.014 143.857 244.923 111.772 241.269 97.1907C240.169 92.683 239.495 88.1247 239.25 83.5484C239.035 79.7793 237.24 76.1518 234.114 73.1637C230.987 70.1757 226.681 67.9736 221.787 66.8597C220.006 66.4567 218.048 66.0787 215.873 65.7408C195.575 62.5667 190.382 65.7408 190.382 65.7408C190.382 65.7408 186.45 75.1627 186.521 79.4331C186.609 84.9226 175.923 88.5622 175.923 88.5622C175.923 88.5622 160.115 85.7837 159.398 83.5358C158.681 81.288 153.025 68.1213 154.29 65.4754Z" fill="#2BBB35"/>
<path opacity="0.1" d="M189.441 64.3519C187.996 61.339 187.672 58.0962 188.502 54.96L152.93 59.5883C152.93 59.5883 153.444 61.5683 154.025 64.5346C156.323 66.2911 159.083 67.6849 162.135 68.6314C165.188 69.5778 168.47 70.057 171.783 70.0399C175.095 70.0228 178.367 69.5098 181.402 68.5319C184.436 67.5541 187.169 66.1319 189.434 64.3519H189.441Z" fill="black"/>
<path d="M195.507 50.8571C195.546 53.2196 194.953 55.5646 193.761 57.7583C192.569 59.9519 190.803 61.9512 188.562 63.642C186.321 65.3327 183.65 66.6819 180.701 67.6124C177.752 68.5429 174.584 69.0366 171.376 69.0652C168.168 69.0938 164.984 68.6568 162.005 67.7791C159.027 66.9014 156.312 65.6003 154.016 63.9499C149.38 60.6169 146.731 56.064 146.653 51.2926C146.656 51.1475 146.656 51.0023 146.656 50.8571C146.654 48.2385 147.429 45.6512 148.926 43.2759C150.423 40.9007 152.606 38.7948 155.322 37.1053C158.039 35.4159 161.224 34.1837 164.654 33.4949C168.084 32.806 171.677 32.6771 175.182 33.1171C180.594 33.7957 185.536 35.7977 189.213 38.7999C192.889 41.802 195.084 45.6291 195.443 49.6631C195.486 50.0586 195.507 50.4566 195.507 50.8571Z" fill="#FFB9B9"/>
<path d="M162.569 33.993L162.603 33.978C157.92 35.2523 153.88 37.5537 151.027 40.5718C148.175 43.59 146.648 47.1798 146.653 50.8569C146.653 51.0021 146.653 51.1473 146.653 51.2925C147.412 51.2774 148.159 51.1452 148.845 50.9045C154.8 48.8569 158.362 42.594 159.776 38.2259C160.285 36.6714 160.765 34.9017 162.569 33.993Z" fill="#090814"/>
<path d="M181.266 34.4989C179.333 33.8447 177.291 33.3809 175.193 33.1196C176.913 33.4112 178.45 34.1221 179.553 35.1372C180.094 35.6789 180.543 36.2673 180.889 36.8894C177.638 35.8425 174.117 35.3283 170.569 35.3823C167.022 35.4363 163.533 36.0573 160.343 37.2023C161.876 39.678 166.631 41.0272 169.806 41.9308C173.281 42.9187 176.794 43.8224 180.342 44.6417L177.201 42.7644L184.295 43.5954C184.371 42.5557 184.203 41.5142 183.799 40.5165C185.158 41.3225 186.959 41.5929 188.435 42.2687C191.198 43.5529 192.35 46.0235 193.856 48.1637C194.253 48.7294 194.722 49.3077 195.44 49.6656C195.15 46.4321 193.68 43.3162 191.185 40.6467C188.691 37.9772 185.264 35.8532 181.266 34.4989Z" fill="#090814"/>
<path d="M143.866 47.4829C143.866 47.4829 169.017 24.4537 198.114 47.4829L195.599 42.3239C195.599 42.3239 181.946 27.6403 172.249 30.8093C162.552 33.9783 153.029 36.2337 153.029 36.2337L143.866 47.4829Z" fill="#CACACA"/>
<path opacity="0.1" d="M123.208 97.0933C123.208 97.0933 117.82 107.677 125.362 117.201C132.904 126.726 118.718 130.696 118.718 130.696" fill="black"/>
<path opacity="0.1" d="M210.506 87.5688C210.506 87.5688 219.846 96.2999 213.739 104.105C207.631 111.91 207.991 130.696 207.991 130.696" fill="black"/>
<path d="M114.945 138.501H218.769C221.056 138.501 223.249 139.17 224.866 140.361C226.483 141.552 227.392 143.167 227.392 144.852H106.326C106.326 143.168 107.234 141.553 108.85 140.362C110.466 139.171 112.659 138.502 114.945 138.501Z" fill="#090814"/>
<path d="M125.509 94.8428H208.209C209.95 94.8428 211.673 95.0953 213.282 95.5859C214.89 96.0765 216.351 96.7956 217.582 97.7021C218.813 98.6086 219.789 99.6848 220.455 100.869C221.121 102.054 221.464 103.323 221.464 104.605V139.955H112.253V104.605C112.253 102.016 113.65 99.5329 116.136 97.7021C118.621 95.8713 121.993 94.8428 125.509 94.8428Z" fill="#090814"/>
<path d="M166.767 124.148C170.339 124.148 173.235 122.015 173.235 119.384C173.235 116.753 170.339 114.621 166.767 114.621C163.195 114.621 160.299 116.753 160.299 119.384C160.299 122.015 163.195 124.148 166.767 124.148Z" fill="white"/>
<path opacity="0.1" d="M145.303 37.097C145.303 37.097 170.02 18.9039 196.677 36.7641" stroke="black" stroke-miterlimit="10"/>
<path d="M202.92 35.938H200.439V46.2986H202.92V35.938Z" fill="#CACACA"/>
<path d="M197.129 42.6416C199.397 42.6416 201.572 43.3051 203.176 44.4862C204.779 45.6673 205.68 47.2693 205.68 48.9396V49.3451C205.68 51.0154 204.779 52.6174 203.176 53.7985C201.572 54.9796 199.397 55.6431 197.129 55.6431V42.6416Z" fill="#2BBB35"/>
<path d="M199.335 43.455C199.335 42.6698 198.47 42.0332 197.404 42.0332C196.338 42.0332 195.474 42.6698 195.474 43.455V54.8319C195.474 55.6172 196.338 56.2537 197.404 56.2537C198.47 56.2537 199.335 55.6172 199.335 54.8319V43.455Z" fill="#090814"/>
<path d="M138.805 46.5015H141.286V36.1408H138.805V46.5015Z" fill="#CACACA"/>
<path d="M144.596 55.8457C142.328 55.8457 140.153 55.1822 138.55 54.0011C136.946 52.82 136.045 51.218 136.045 49.5477V49.1422C136.045 48.3151 136.266 47.4962 136.696 46.7321C137.126 45.9679 137.756 45.2737 138.55 44.6888C139.344 44.104 140.286 43.6401 141.324 43.3236C142.361 43.0071 143.473 42.8442 144.596 42.8442V55.8457Z" fill="#2BBB35"/>
<path d="M142.391 55.0323C142.391 55.8175 143.255 56.4541 144.321 56.4541C145.387 56.4541 146.252 55.8175 146.252 55.0323V43.6554C146.252 42.8701 145.387 42.2336 144.321 42.2336C143.255 42.2336 142.391 42.8701 142.391 43.6554V55.0323Z" fill="#090814"/>
<path d="M200.147 24.864C196.785 19.7175 189.464 13.4946 173.684 12.9965V12.9814H173.493L167.902 13.1767V13.1967C152.227 13.7274 144.94 19.9278 141.588 25.0568C139.356 28.5338 138.172 32.3251 138.115 36.1709L140.045 36.1358L141.976 36.1033C142.059 32.6794 143.128 29.3076 145.113 26.2107C149.368 19.7726 157.199 16.3507 168.385 16.0328L173.33 15.8301C184.522 16.1455 192.357 19.5723 196.609 26.008C198.596 29.106 199.668 32.4796 199.753 35.9055L201.683 35.9381L203.614 35.9731C203.558 32.1294 202.376 28.3399 200.147 24.864Z" fill="#2BBB35"/>
<path d="M288.343 144.934H25.0324V197H288.343V144.934Z" fill="#D6D6E3"/>
<path opacity="0.1" d="M288.343 148.438H25.0324V153.945H288.343V148.438Z" fill="black"/>
<path d="M306 144.183H7.36865V150.942H306V144.183Z" fill="#D6D6E3"/>
</g>
<defs>
<clipPath id="clip0_20_75">
<rect width="306" height="197" fill="white"/>
</clipPath>
</defs>
</svg>
