<svg width="306" height="197" viewBox="0 0 306 197" fill="none" xmlns="http://www.w3.org/2000/svg">
<g clip-path="url(#clip0_20_199)">
<path d="M300.79 -0.000488281H5.21012C3.81689 0.0121763 2.48592 0.539257 1.50916 1.46515C0.532403 2.39104 -0.0103888 3.64014 -0.000163276 4.93846V192.071C-0.00764923 193.367 0.536445 194.614 1.51299 195.537C2.48953 196.461 3.81894 196.986 5.21012 196.998H300.79C302.181 196.986 303.51 196.46 304.487 195.537C305.463 194.614 306.007 193.367 306 192.071V4.9389C306.01 3.64065 305.467 2.39162 304.491 1.46574C303.514 0.539861 302.183 0.0127235 300.79 -5.58521e-05L300.79 -0.000488281Z" fill="#090814"/>
<path d="M257.433 0.978027H5.491C4.31233 0.980452 3.18281 1.41844 2.35024 2.19591C1.51767 2.97339 1.05002 4.02685 1.0499 5.12521V162.249C1.05188 163.346 1.52043 164.397 2.35287 165.173C3.18531 165.949 4.31376 166.385 5.491 166.387H257.432C258.61 166.385 259.738 165.949 260.57 165.173C261.403 164.397 261.871 163.346 261.873 162.249V5.12695C261.873 4.02867 261.406 2.97527 260.573 2.19781C259.741 1.42035 258.611 0.98231 257.433 0.97977V0.978027Z" fill="#090814"/>
<path d="M292.054 0.977922H5.52238C4.18148 0.980117 2.89629 1.478 1.94892 2.36228C1.00155 3.24656 0.469391 4.44499 0.469269 5.69451V184.39C0.471002 185.638 1.00395 186.835 1.95121 187.718C2.89847 188.601 4.18275 189.097 5.52238 189.099H292.054C293.394 189.097 294.678 188.601 295.626 187.718C296.573 186.835 297.106 185.638 297.108 184.39V5.69364C297.108 4.44453 296.576 3.24643 295.629 2.3622C294.682 1.47797 293.398 0.979822 292.057 0.977051L292.054 0.977922Z" fill="white"/>
<path d="M283.381 25.5996H15.2748C14.992 25.5996 14.7208 25.4949 14.5209 25.3085C14.3209 25.1222 14.2086 24.8695 14.2086 24.6059C14.2086 24.3424 14.3209 24.0897 14.5209 23.9033C14.7208 23.717 14.992 23.6123 15.2748 23.6123H283.382C283.665 23.6123 283.936 23.717 284.136 23.9033C284.336 24.0897 284.448 24.3424 284.448 24.6059C284.448 24.8695 284.336 25.1222 284.136 25.3085C283.936 25.4949 283.664 25.5996 283.381 25.5996Z" fill="#CACACA"/>
<path d="M20.4809 18.5387C23.9319 18.5387 26.7294 15.8738 26.7294 12.5865C26.7294 9.29917 23.9319 6.63428 20.4809 6.63428C17.0299 6.63428 14.2324 9.29917 14.2324 12.5865C14.2324 15.8738 17.0299 18.5387 20.4809 18.5387Z" fill="#3F3D56"/>
<path d="M42.0655 18.5387C45.5165 18.5387 48.314 15.8738 48.314 12.5865C48.314 9.29917 45.5165 6.63428 42.0655 6.63428C38.6146 6.63428 35.817 9.29917 35.817 12.5865C35.817 15.8738 38.6146 18.5387 42.0655 18.5387Z" fill="#3F3D56"/>
<path d="M63.6506 18.5387C67.1016 18.5387 69.8992 15.8738 69.8992 12.5865C69.8992 9.29917 67.1016 6.63428 63.6506 6.63428C60.1997 6.63428 57.4021 9.29917 57.4021 12.5865C57.4021 15.8738 60.1997 18.5387 63.6506 18.5387Z" fill="#2BBB35"/>
<path d="M278.176 18.5387C281.627 18.5387 284.425 15.8738 284.425 12.5865C284.425 9.29917 281.627 6.63428 278.176 6.63428C274.725 6.63428 271.928 9.29917 271.928 12.5865C271.928 15.8738 274.725 18.5387 278.176 18.5387Z" fill="#E6E6E6"/>
<path d="M225.323 71.0547H163.776C157.574 71.0547 152.547 75.7395 152.547 81.5186V94.8387C152.547 100.618 157.574 105.303 163.776 105.303H225.323C231.524 105.303 236.552 100.618 236.552 94.8387V81.5186C236.552 75.7395 231.524 71.0547 225.323 71.0547Z" fill="#2BBB35"/>
<path d="M133.604 71.0547H72.057C65.8554 71.0547 60.8279 75.7395 60.8279 81.5186V94.8387C60.8279 100.618 65.8554 105.303 72.057 105.303H133.604C139.806 105.303 144.833 100.618 144.833 94.8387V81.5186C144.833 75.7395 139.806 71.0547 133.604 71.0547Z" fill="#E6E6E6"/>
<path d="M193.5 97.476C193.242 97.4761 192.994 97.3883 192.802 97.2293C192.61 97.0702 192.487 96.851 192.457 96.6132C192.26 95.0871 191.52 93.6665 190.355 92.578C189.192 91.4977 187.676 90.8094 186.046 90.6222C185.869 90.606 185.7 90.5484 185.553 90.4546C185.407 90.3607 185.289 90.2339 185.209 90.0858C185.13 89.9377 185.092 89.7732 185.099 89.6077C185.106 89.4423 185.159 89.2813 185.251 89.1398C185.816 88.2321 186.598 87.4577 187.536 86.8764C188.474 86.2951 189.542 85.9223 190.659 85.787C191.429 84.1079 192.688 82.6631 194.294 81.616C195.899 80.5689 197.787 79.9613 199.743 79.8618C199.762 79.8618 199.781 79.8618 199.8 79.8618C200.914 79.8629 201.982 80.2755 202.769 81.0093C203.557 81.7431 204 82.738 204.001 83.7757C204.001 83.7935 204.001 83.8112 204.001 83.8289C203.894 85.6523 203.242 87.4114 202.118 88.9073C200.994 90.4032 199.444 91.5762 197.642 92.2938C197.496 93.3383 197.094 94.3375 196.467 95.2136C195.839 96.0897 195.003 96.8192 194.024 97.3452C193.865 97.4309 193.684 97.476 193.5 97.476ZM188 89.0221C189.448 89.4487 190.766 90.1931 191.842 91.1929C192.914 92.1955 193.712 93.4232 194.17 94.7728C195.052 93.9056 195.562 92.7658 195.6 91.5709C195.607 91.3738 195.678 91.1833 195.803 91.0244C195.928 90.8654 196.102 90.7454 196.302 90.6802C197.866 90.1707 199.232 89.2404 200.229 88.007C201.225 86.7735 201.807 85.2924 201.9 83.7509C201.892 83.2407 201.671 82.7535 201.284 82.3927C200.897 82.0319 200.374 81.8261 199.827 81.819C198.172 81.9055 196.583 82.4474 195.259 83.376C193.935 84.3047 192.936 85.5785 192.39 87.0361C192.32 87.2222 192.191 87.3842 192.02 87.5009C191.85 87.6176 191.645 87.6836 191.434 87.6901C190.152 87.7259 188.93 88.2 188 89.0221Z" fill="white"/>
<path d="M186.109 97.9576C185.747 97.9576 185.386 97.9372 185.027 97.8966C184.775 97.8738 184.538 97.7742 184.353 97.6132C184.168 97.4523 184.045 97.2389 184.003 97.0063C183.789 95.5732 184.072 94.1138 184.812 92.8416C185.575 91.5319 186.742 90.4657 188.162 89.7809C188.436 89.6453 188.754 89.6104 189.054 89.6831C189.354 89.7558 189.613 89.9307 189.781 90.1733C189.857 90.2918 189.906 90.4237 189.924 90.5607C189.943 90.6977 189.93 90.8367 189.888 90.9689C189.846 91.1012 189.774 91.2238 189.678 91.329C189.582 91.4341 189.464 91.5196 189.331 91.5799C188.463 91.9847 187.726 92.5974 187.195 93.3551C186.665 94.1128 186.36 94.9883 186.313 95.8919C187.309 95.8746 188.285 95.6258 189.152 95.168C190.019 94.7102 190.749 94.0578 191.277 93.2702C191.445 93.0276 191.704 92.8526 192.004 92.78C192.304 92.7073 192.622 92.7422 192.896 92.8778C193.029 92.9381 193.147 93.0236 193.243 93.1287C193.339 93.2339 193.41 93.3565 193.453 93.4888C193.495 93.621 193.507 93.76 193.489 93.897C193.471 94.0339 193.422 94.1659 193.346 94.2843C192.508 95.5593 191.282 96.5727 189.823 97.195C188.66 97.699 187.392 97.9593 186.109 97.9576Z" fill="white"/>
<path d="M197.716 87.2536C197.39 87.2536 197.071 87.1634 196.8 86.9946C196.529 86.8258 196.318 86.5858 196.193 86.3051C196.068 86.0243 196.035 85.7154 196.099 85.4174C196.163 85.1193 196.32 84.8456 196.55 84.6307C196.781 84.4158 197.075 84.2695 197.394 84.2102C197.714 84.1509 198.046 84.1813 198.347 84.2976C198.648 84.4139 198.906 84.6108 199.087 84.8635C199.268 85.1162 199.365 85.4132 199.365 85.7171C199.364 86.1245 199.19 86.515 198.881 86.803C198.572 87.0911 198.153 87.2531 197.716 87.2536Z" fill="white"/>
<path d="M112.199 142.613H186.116C186.755 142.613 187.369 142.376 187.821 141.954C188.273 141.533 188.527 140.962 188.527 140.366C188.527 139.77 188.273 139.199 187.821 138.777C187.369 138.356 186.755 138.119 186.116 138.119H112.199C111.56 138.119 110.946 138.356 110.494 138.777C110.042 139.199 109.788 139.77 109.788 140.366C109.788 140.962 110.042 141.533 110.494 141.954C110.946 142.376 111.56 142.613 112.199 142.613Z" fill="#E4E4E4"/>
<path d="M112.2 153.943H144.24C144.88 153.943 145.493 153.706 145.945 153.285C146.397 152.864 146.651 152.292 146.651 151.696C146.651 151.101 146.397 150.529 145.945 150.108C145.493 149.686 144.88 149.45 144.24 149.45H112.2C111.56 149.45 110.947 149.686 110.495 150.108C110.042 150.529 109.788 151.101 109.788 151.697C109.788 152.293 110.042 152.864 110.495 153.285C110.947 153.707 111.56 153.944 112.2 153.944V153.943Z" fill="#E4E4E4"/>
</g>
<defs>
<clipPath id="clip0_20_199">
<rect width="306" height="197" fill="white"/>
</clipPath>
</defs>
</svg>
